<?xml version="1.0" encoding="UTF-8"?>
<svg id="Calque_2" data-name="Calque 2" xmlns="http://www.w3.org/2000/svg" viewBox="0 0 48.94 37.3">
  <defs>
    <style>
      .cls-1 {
        fill: #02091d;
        stroke-width: 0px;
      }
    </style>
  </defs>
  <g id="Calque_1-2" data-name="Calque 1">
    <path class="cls-1" d="M41.43,3.09C38.31,1.66,34.96.61,31.47,0c-.06-.01-.13.02-.16.08-.43.77-.91,1.76-1.24,2.55-3.76-.56-7.5-.56-11.19,0-.33-.8-.83-1.78-1.26-2.55-.03-.06-.1-.09-.16-.08-3.5.6-6.84,1.66-9.96,3.09-.03.01-.05.03-.07.06C1.09,12.63-.65,21.87.2,31c0,.04.03.09.06.11,4.19,3.07,8.24,4.94,12.22,6.18.06.02.13,0,.17-.06.94-1.29,1.78-2.64,2.5-4.07.04-.08,0-.18-.08-.22-1.33-.5-2.6-1.12-3.82-1.82-.1-.06-.1-.19-.02-.26.26-.19.51-.39.76-.59.04-.04.11-.04.16-.02,8.01,3.66,16.68,3.66,24.59,0,.05-.03.11-.02.16.02.25.2.5.4.76.6.09.07.08.2-.01.26-1.22.71-2.49,1.31-3.82,1.82-.09.03-.13.13-.08.22.73,1.42,1.57,2.78,2.5,4.06.04.05.11.08.17.06,4-1.24,8.05-3.1,12.24-6.18.04-.03.06-.07.06-.11,1.02-10.56-1.71-19.73-7.24-27.85-.01-.03-.04-.05-.06-.06ZM16.35,25.44c-2.41,0-4.4-2.21-4.4-4.93s1.95-4.93,4.4-4.93,4.44,2.23,4.4,4.93c0,2.72-1.95,4.93-4.4,4.93ZM32.61,25.44c-2.41,0-4.4-2.21-4.4-4.93s1.95-4.93,4.4-4.93,4.44,2.23,4.4,4.93c0,2.72-1.93,4.93-4.4,4.93Z"/>
  </g>
</svg>