<?xml version="1.0" encoding="UTF-8"?>
<svg id="Calque_2" data-name="Calque 2" xmlns="http://www.w3.org/2000/svg" viewBox="0 0 48.47 48.32">
  <defs>
    <style>
      .cls-1 {
        fill: #02091d;
        stroke-width: 0px;
      }
    </style>
  </defs>
  <g id="Calque_1-2" data-name="Calque 1">
    <path class="cls-1" d="M16.14,48.26c0-3.01,0-6.02.02-9.02,0-.25.2-.54.38-.75,5.4-6.4,10.82-12.79,16.23-19.19,1.4-1.65,2.8-3.31,4.2-4.96.09-.1.16-.22.16-.39-1.77,1.48-3.54,2.95-5.32,4.43-5.42,4.51-10.84,9.02-16.24,13.55-.36.3-.62.33-1.04.1-4.61-2.48-9.23-4.94-13.85-7.4-.2-.1-.39-.22-.68-.39C16.18,16.14,32.26,8.1,48.47,0c-2.7,15.31-5.39,30.51-8.08,45.79-5.28-2.81-10.48-5.59-15.73-8.38-2.82,3.66-5.61,7.28-8.4,10.91-.04-.02-.08-.04-.13-.06Z"/>
  </g>
</svg>