<?xml version="1.0" encoding="UTF-8"?>
<svg id="Calque_2" data-name="Calque 2" xmlns="http://www.w3.org/2000/svg" viewBox="0 0 193.01 267.18">
  <defs>
    <style>
      .cls-1, .cls-2 {
        fill: none;
        stroke: #fff;
        stroke-miterlimit: 10;
      }

      .cls-3 {
        fill: #ddb758;
      }

      .cls-3, .cls-4 {
        stroke-width: 0px;
      }

      .cls-2 {
        stroke-width: 2px;
      }

      .cls-4 {
        fill: #fff;
      }
    </style>
  </defs>
  <g id="Calque_1-2" data-name="Calque 1">
    <g id="carreau">
      <path class="cls-4" d="M48.49,13.72c-3.02,10.3-10.45,18.88-20.34,23.29,9.83,4.43,17.33,13.13,20.34,23.39,3.02-10.3,10.45-18.88,20.34-23.29-9.83-4.43-17.33-13.13-20.34-23.39Z"/>
    </g>
    <g id="coeur">
      <path class="cls-4" d="M162.02,21.3c-2.17-3.63-6.51-5.95-10.7-5.38-4.19.58-10.23,5.8-10.48,10.02-.25-4.22-6.29-9.44-10.48-10.02-4.19-.58-8.53,1.75-10.7,5.38-2.17,3.63-2.22,8.34-.47,12.19,2.32,5.1,7.25,8.41,11.74,11.76,4.49,3.35,9.04,7.51,9.91,13.05.86-5.54,5.41-9.69,9.91-13.05,4.49-3.35,9.43-6.66,11.74-11.76,1.75-3.85,1.7-8.56-.47-12.19Z"/>
    </g>
    <g id="pique">
      <path class="cls-4" d="M68.54,118.92c-2.15-4.73-6.72-7.79-10.88-10.89-4.16-3.11-8.38-6.95-9.17-12.08-.8,5.13-5.02,8.98-9.17,12.08-4.16,3.11-8.73,6.17-10.88,10.89-1.62,3.57-1.57,7.93.44,11.29,2.01,3.36,6.03,5.51,9.91,4.98,3.57-.49,8.6-4.63,9.55-8.34-.55,3.69-2.38,9.98-5,11.79h10.31c-2.63-1.81-4.45-8.11-5-11.79.95,3.71,5.98,7.85,9.55,8.34,3.88.53,7.9-1.62,9.91-4.98,2.01-3.36,2.05-7.72.44-11.29Z"/>
    </g>
    <g id="trèfle">
      <path class="cls-4" d="M161.84,121.43c2.54-.1,2.89-3.14,2.84-4.19-.09-1.71-1.05-3.41-3.23-4.28-2.18-.87-5.02-.89-7.33-.19-3.07.93-5.06,2.9-7.07,4.69-1.99,1.77-2.87,3.55-6.12,3.94,0-.02,0-.04,0-.06.47-3.06,2.19-5.4,3.89-7.31,1.79-2.02,3.77-5.05,4.69-8.12.7-2.32.68-5.15-.19-7.33-.87-2.18-2.57-3.13-4.28-3.23-.83-.05-4.09.3-4.19,2.84-.1-2.54-3.14-2.89-4.19-2.84-1.71.09-3.41,1.05-4.28,3.23-.87,2.18-.89,5.02-.19,7.33.93,3.07,2.9,6.1,4.69,8.12,1.7,1.91,3.41,4.24,3.89,7.3,0,.02,0,.04,0,.06-3.25-.39-4.13-2.17-6.11-3.94-2.02-1.79-4-3.77-7.07-4.69-2.32-.7-5.15-.68-7.33.19-2.18.87-3.13,2.57-3.23,4.28-.05.83.3,4.09,2.84,4.19-2.54.1-2.89,3.14-2.84,4.19.09,1.71,1.05,3.41,3.23,4.28,2.18.87,5.02.89,7.33.19,3.07-.93,5.06-2.9,7.07-4.69,1.98-1.76,2.86-3.55,6.11-3.94-.43,5.14-2.31,15.04-5.08,17.78h10.31c-2.76-2.74-4.64-12.63-5.08-17.78,3.25.39,4.13,2.17,6.12,3.94,2.02,1.79,4,3.77,7.07,4.69,2.32.7,5.15.68,7.33-.19,2.18-.87,3.13-2.57,3.23-4.28.05-.83-.3-4.09-2.84-4.19Z"/>
    </g>
    <polygon id="_étoile" data-name="étoile" class="cls-3" points="56.88 201.98 74.09 197.46 56.88 192.94 62.32 183.63 53.01 189.06 48.49 171.86 43.97 189.06 34.66 183.63 40.1 192.94 22.89 197.46 40.1 201.98 34.66 211.28 43.97 205.85 48.49 223.05 53.01 205.85 62.32 211.28 56.88 201.98"/>
    <path id="lune" class="cls-3" d="M152.25,215.21c-9.83.04-17.83-7.88-17.87-17.71-.04-9.83,7.88-17.83,17.71-17.87,2.97-.01,5.78.71,8.25,1.99-4.16-4.3-10-6.96-16.45-6.93-12.58.06-22.73,10.3-22.67,22.88.06,12.58,10.3,22.73,22.88,22.67,6.45-.03,12.27-2.75,16.39-7.08-2.46,1.3-5.26,2.05-8.23,2.06Z"/>
    <line class="cls-1" x1="93.85" y1="2.66" x2="93.85" y2="266.18"/>
    <line class="cls-1" x1="167.3" y1="79.21" x2="26.43" y2="79.21"/>
    <line class="cls-1" x1="25.71" y1="161.62" x2="167.3" y2="161.62"/>
    <path class="cls-2" d="M192.01,1H1v168.18h.07c-.03.97-.07,1.94-.07,2.91,0,51.96,42.76,94.09,95.5,94.09s95.5-42.12,95.5-94.09c0-.98-.04-1.94-.07-2.91h.07V1Z"/>
  </g>
</svg>